<svg xmlns="http://www.w3.org/2000/svg" xmlns:xlink="http://www.w3.org/1999/xlink" width="220" zoomAndPan="magnify" viewBox="0 0 165 190.499994" height="254" preserveAspectRatio="xMidYMid meet" version="1.0"><defs><clipPath id="5318c143c1"><path d="M 0.21875 30 L 79 30 L 79 171 L 0.21875 171 Z M 0.21875 30 " clip-rule="nonzero"/></clipPath><clipPath id="844fe037b9"><path d="M 33 0 L 164.78125 0 L 164.78125 82 L 33 82 Z M 33 0 " clip-rule="nonzero"/></clipPath><clipPath id="d7d09d392a"><path d="M 52 68 L 164.78125 68 L 164.78125 189.890625 L 52 189.890625 Z M 52 68 " clip-rule="nonzero"/></clipPath><clipPath id="4668c2e9e8"><path d="M 63.773438 77.152344 L 105.101562 77.152344 L 105.101562 118.523438 L 63.773438 118.523438 Z M 63.773438 77.152344 " clip-rule="nonzero"/></clipPath><clipPath id="688850ce55"><path d="M 0.773438 0.152344 L 42.101562 0.152344 L 42.101562 41.523438 L 0.773438 41.523438 Z M 0.773438 0.152344 " clip-rule="nonzero"/></clipPath><clipPath id="7e03753bb2"><rect x="0" width="43" y="0" height="42"/></clipPath><clipPath id="c7a6abeb7e"><path d="M 4.90625 88.101562 L 89.238281 88.101562 L 89.238281 109.792969 L 4.90625 109.792969 Z M 4.90625 88.101562 " clip-rule="nonzero"/></clipPath><clipPath id="f8a0a39740"><path d="M 0.90625 0.101562 L 85.238281 0.101562 L 85.238281 21.792969 L 0.90625 21.792969 Z M 0.90625 0.101562 " clip-rule="nonzero"/></clipPath><clipPath id="264f5d9d29"><rect x="0" width="86" y="0" height="22"/></clipPath></defs><g clip-path="url(#5318c143c1)"><path fill="#ff5400" d="M 49.152344 170.601562 L 0.21875 142.347656 L 0.21875 47.519531 L 29.742188 30.472656 L 29.742188 125.304688 L 78.675781 153.554688 L 50.988281 169.542969 Z M 49.152344 170.601562 " fill-opacity="1" fill-rule="nonzero"/></g><g clip-path="url(#844fe037b9)"><path fill="#000000" d="M 82.34375 0.105469 L 164.46875 47.519531 L 164.46875 81.609375 L 82.34375 34.191406 L 33.410156 62.445312 L 33.410156 28.355469 Z M 82.34375 0.105469 " fill-opacity="1" fill-rule="nonzero"/></g><g clip-path="url(#d7d09d392a)"><path fill="#3c0573" d="M 164.46875 85.84375 L 164.46875 142.347656 L 82.34375 189.761719 L 52.820312 172.71875 L 134.945312 125.304688 L 134.945312 68.796875 L 162.632812 84.785156 Z M 164.46875 85.84375 " fill-opacity="1" fill-rule="nonzero"/></g><g clip-path="url(#4668c2e9e8)"><g transform="matrix(1, 0, 0, 1, 63, 77)"><g clip-path="url(#7e03753bb2)"><g clip-path="url(#688850ce55)"><path fill="#ff5400" d="M 0.773438 0.152344 L 42.101562 0.152344 L 42.101562 41.480469 L 0.773438 41.480469 Z M 0.773438 0.152344 " fill-opacity="1" fill-rule="nonzero"/></g></g></g></g><g clip-path="url(#c7a6abeb7e)"><g transform="matrix(1, 0, 0, 1, 4, 88)"><g clip-path="url(#264f5d9d29)"><g clip-path="url(#f8a0a39740)"><path fill="#ff5400" d="M 85.238281 21.792969 L 0.921875 21.792969 L 0.921875 0.101562 L 85.238281 0.101562 Z M 85.238281 21.792969 " fill-opacity="1" fill-rule="nonzero"/></g></g></g></g></svg>